<?xml version="1.0" standalone="no"?>
<!DOCTYPE svg PUBLIC "-//W3C//DTD SVG 1.1//EN" "http://www.w3.org/Graphics/SVG/1.1/DTD/svg11.dtd" >
<!--
2013-9-30: Created.
-->
<svg>
<metadata>
Created by iconfont
</metadata>
<defs>

<font id="iconfont" horiz-adv-x="1024" >
  <font-face
    font-family="iconfont"
    font-weight="500"
    font-stretch="normal"
    units-per-em="1024"
    ascent="896"
    descent="-128"
  />
    <missing-glyph />
    
    <glyph glyph-name="x" unicode="x" horiz-adv-x="1001"
d="M281 543q-27 -1 -53 -1h-83q-18 0 -36.5 -6t-32.5 -18.5t-23 -32t-9 -45.5v-76h912v41q0 16 -0.5 30t-0.5 18q0 13 -5 29t-17 29.5t-31.5 22.5t-49.5 9h-133v-97h-438v97zM955 310v-52q0 -23 0.5 -52t0.5 -58t-10.5 -47.5t-26 -30t-33 -16t-31.5 -4.5q-14 -1 -29.5 -0.5
t-29.5 0.5h-32l-45 128h-439l-44 -128h-29h-34q-20 0 -45 1q-25 0 -41 9.5t-25.5 23t-13.5 29.5t-4 30v167h911zM163 247q-12 0 -21 -8.5t-9 -21.5t9 -21.5t21 -8.5q13 0 22 8.5t9 21.5t-9 21.5t-22 8.5zM316 123q-8 -26 -14 -48q-5 -19 -10.5 -37t-7.5 -25t-3 -15t1 -14.5
t9.5 -10.5t21.5 -4h37h67h81h80h64h36q23 0 34 12t2 38q-5 13 -9.5 30.5t-9.5 34.5q-5 19 -11 39h-368zM336 498v228q0 11 2.5 23t10 21.5t20.5 15.5t34 6h188q31 0 51.5 -14.5t20.5 -52.5v-227h-327z" />
    

    
    <glyph glyph-name="fenlei" unicode="&#58940;" d="M751.294526 539.140519 390.535089 539.140519l0-59.783595L751.294526 479.356924 751.294526 539.140519zM751.294526 329.898961 390.535089 329.898961l0-59.782571L751.294526 270.116389 751.294526 329.898961zM751.294526 120.642053 390.535089 120.642053 390.535089 60.859481 751.294526 60.859481 751.294526 120.642053zM33.382806 778.273874l0-956.547749 957.233364 0L990.61617 778.273874 33.382806 778.273874zM930.774247-118.49028 93.20938-118.49028 93.20938 718.491303l837.564867 0L930.774247-118.49028zM330.751494 120.642053l-58.075697 0L272.675798 60.859481l58.075697 0L330.751494 120.642053zM330.751494 329.898961l-58.075697 0 0-59.782571 58.075697 0L330.751494 329.898961zM330.751494 539.140519l-58.075697 0 0-59.783595 58.075697 0L330.751494 539.140519z"  horiz-adv-x="1024" />

    
    <glyph glyph-name="people" unicode="&#59190;" d="M800 512c0 160-128 288-288 288s-288-128-288-288c0-108.8 57.6-201.6 147.2-249.6-121.6-48-214.4-153.6-240-288-3.2-16 6.4-35.2 25.6-38.4h6.4c16 0 28.8 9.6 32 25.6 28.8 150.4 160 259.2 313.6 262.4h6.4c156.8 0 284.8 128 284.8 288zM288 512c0 124.8 99.2 224 224 224s224-99.2 224-224c0-121.6-99.2-220.8-220.8-224h-9.6c-121.6 3.2-217.6 102.4-217.6 224zM723.2 220.8c-16 9.6-35.2 6.4-44.8-9.6-9.6-16-6.4-35.2 9.6-44.8 73.6-51.2 124.8-121.6 140.8-204.8 3.2-16 16-25.6 32-25.6h6.4c16 3.2 28.8 19.2 25.6 38.4-19.2 99.2-80 185.6-169.6 246.4z"  horiz-adv-x="1024" />

    
    <glyph glyph-name="xiaoxi" unicode="&#58904;" d="M508.954129 674.524952c104.539938 0 199.11799-42.076304 267.632433-110.963231l1.488911-1.860371c67.585281-68.14196 109.289102-161.975045 109.289102-265.678942 0-40.769542-6.604418-80.056314-18.61701-117.474528-11.549034-35.001165-28.116361-67.959811-48.308239-97.565083l0-134.789892c0-15.641235-13.223163-28.848025-29.324886-28.848025l-0.843204 0L508.954129-82.65512c-104.540961 0-199.10571 42.629913-267.717368 110.960161l0 0c-68.610634 68.695568-110.680798 163.087379-110.680798 267.718391 0 104.448864 42.070164 199.026916 110.680798 267.539312l0 0C309.848419 632.447625 404.414191 674.524952 508.954129 674.524952L508.954129 674.524952zM320.078411 371.982428 320.078411 371.982428c-9.497305 0-17.494443 7.636934-17.494443 17.128099 0 9.870812 7.996115 17.501606 17.494443 17.501606L697.744913 406.612133c9.496282 0 17.310248-7.630794 17.310248-17.501606 0-9.491165-7.813966-17.128099-17.310248-17.128099L320.078411 371.982428 320.078411 371.982428zM320.078411 278.338654 320.078411 278.338654c-9.497305 0-17.494443 8.191566-17.494443 17.683754 0 9.6815 7.996115 17.500583 17.494443 17.500583L697.744913 313.522991c9.496282 0 17.310248-7.819083 17.310248-17.500583 0-9.491165-7.813966-17.683754-17.310248-17.683754L320.078411 278.338654 320.078411 278.338654zM320.078411 185.061224 320.078411 185.061224c-9.497305 0-17.494443 8.007371-17.494443 17.873066 0 9.497305 7.996115 17.688871 17.494443 17.688871L697.744913 220.623161c9.496282 0 17.310248-8.191566 17.310248-17.688871 0-9.865695-7.813966-17.873066-17.310248-17.873066L320.078411 185.061224 320.078411 185.061224zM735.346299 522.603891 735.346299 522.603891c-57.891502 57.71447-138.03889 93.643774-226.391147 93.643774-88.424912 0-168.585603-35.928281-226.576365-93.643774l-0.279363 0 0 0c-57.80759-58.087976-93.736894-138.143267-93.736894-226.581482 0-88.431052 35.929304-168.677701 94.016257-226.39217l-0.279363 0c58.270125-58.087976 138.430816-94.01728 226.855728-94.01728l253.201769 0L762.156922 89.920354l0 0c0 5.956665 1.685385 12.294001 5.409197 17.324574 19.826558 26.801413 35.281551 56.780191 45.791929 89.547479 10.145058 30.906917 15.737426 64.418148 15.737426 99.230002 0 88.064708-35.282574 167.377078-92.539626 224.902236L735.346299 522.603891 735.346299 522.603891z"  horiz-adv-x="1024" />

    
    <glyph glyph-name="gouwu1" unicode="&#59313;" d="M297.110303 534.372799c-23.743774 0-42.97886 19.298532-42.97886 42.97886 0 23.760147 19.235087 42.97886 42.97886 42.97886 23.760147 0 42.97886-19.218714 42.97886-42.97886C340.089164 553.672354 320.869427 534.372799 297.110303 534.372799L297.110303 534.372799zM726.898907 534.372799c-23.743774 0-42.97886 19.298532-42.97886 42.97886 0 23.760147 19.235087 42.97886 42.97886 42.97886 23.760147 0 42.97886-19.218714 42.97886-42.97886C769.877767 553.672354 750.65803 534.372799 726.898907 534.372799L726.898907 534.372799zM812.856627-2.81486l-601.704045 0c-47.424102 0-85.957721 38.518269-85.957721 85.957721l0 601.704045c0 47.376007 38.533618 85.957721 85.957721 85.957721l601.704045 0c47.439452 0 85.957721-38.581714 85.957721-85.957721l0-601.704045C898.814348 35.703409 860.296079-2.81486 812.856627-2.81486L812.856627-2.81486zM855.835488 684.846906c0 23.712051-19.25146 42.97886-42.97886 42.97886l-601.704045 0c-23.712051 0-42.97886-19.266809-42.97886-42.97886l0-601.704045c0-23.728424 19.266809-42.97886 42.97886-42.97886l601.704045 0c23.728424 0 42.97886 19.25146 42.97886 42.97886L855.835488 684.846906 855.835488 684.846906zM512.004605 341.016023c-130.36 0-236.335636 106.008382-236.335636 236.335636 0 11.879562 9.577123 21.537526 21.441335 21.537526 11.879562 0 21.537526-9.657964 21.537526-21.537526 0-106.616226 86.708827-193.356776 193.356776-193.356776 106.663298 0 193.452967 86.741573 193.452967 193.356776 0 11.879562 9.577123 21.537526 21.441335 21.537526 11.879562 0 21.537526-9.657964 21.537526-21.537526C748.436432 447.024405 642.379954 341.016023 512.004605 341.016023L512.004605 341.016023z"  horiz-adv-x="1024" />

    
    <glyph glyph-name="back" unicode="&#58891;" d="M776.5 743.142l-88.683 89.634-443.408-448.185 443.408-448.189 88.683 89.642-354.728 358.547z"  horiz-adv-x="1024" />

    
    <glyph glyph-name="search1" unicode="&#58884;" d="M266.181 571.584c0-36.492 29.581-66.075 66.075-66.075s66.075 29.581 66.075 66.075c0 36.492-29.581 66.075-66.075 66.075-36.492 0-66.075-29.581-66.075-66.075zM458.115 14.672c-113.269 0-224.963 44.051-308.346 127.427-81.804 81.804-127.427 191.929-127.427 306.773 0 116.417 45.62 224.963 127.427 306.773 169.905 169.905 445.218 169.905 615.121 0 81.804-81.804 127.427-191.929 127.427-306.773 0-116.417-45.62-224.963-127.427-306.773-12.588-12.588-31.466-12.588-44.051 0s-12.588 31.466 0 44.051c70.796 70.796 108.549 163.616 108.549 262.725s-39.329 191.929-108.549 262.725c-144.738 144.738-380.711 144.738-525.451 0-70.796-70.796-108.549-163.616-108.549-262.725s39.329-191.929 108.549-262.725c94.39-94.39 232.837-130.579 360.261-95.967 17.302 4.722 34.613-4.722 39.329-22.026 4.722-17.302-4.722-34.613-22.026-39.329-39.329-7.867-77.089-14.16-114.844-14.16zM986.707-111.19c-7.867 0-15.732 3.147-22.026 9.437l-229.685 229.685c-12.588 12.588-12.588 31.466 0 44.051s31.466 12.588 44.051 0l229.685-229.685c12.588-12.588 12.588-31.466 0-44.051-6.292-6.292-14.16-9.437-22.026-9.437z"  horiz-adv-x="1024" />

    
    <glyph glyph-name="iconxingji" unicode="&#58902;" d="M770.098 216.72699999999997c1.65325-4.82988 2.34606-9.96711 1.90493-15.1825l0.691498-5.54391-1.63469 0c-0.307332-1.26907-0.463648-2.55801-0.923323-3.80853l-0.808073-3.40451c-6.88849-19.6069-28.3594-29.9186-47.9466-23.0499-10.0068 3.51975-17.5498 10.8507-21.6656 19.7607l-1.15515-1.17369-0.556379 5.84859c-1.5605 5.02196-2.17781 10.3698-1.48367 15.7958l-9.67833 104.142 151.37 159.169-220.673 45.4959-110.423 191.099 0-3.04021-108.001-189.437-216.122-47.0138 146.672-155.516-30.7267-227.312 208.178 98.0695 81.9267-35.8439-0.498091-1.15515c18.3538-8.09927 27.7844-28.9395 21.0098-48.1796l-0.845164-3.51975c-7.10044-20.223-29.247-30.8618-49.4713-23.7626-0.809398 0.268916-1.5009 0.729914-2.27056 1.06109l0-0.213278-50.0262 23.454-256.378-120.237c-13.8432 3.59922-26.0689 11.9105-34.2663 23.7811l35.2597 281.994-196.72 210.025c1.07699 13.9585 7.05143 26.9088 16.6436 36.8747l277.626 53.3248L491.951 838.304c9.92737 2.47324 20.2601 2.33812 30.1503-0.327203l142.67-258.742 276.647-53.1435c9.88895-10.1791 15.9507-23.5309 16.8543-37.8762L762.326 279.009 770.098 216.72699999999997Z"  horiz-adv-x="1024" />

    
    <glyph glyph-name="fenlei2" unicode="&#58886;" d="M444.0832 412.544 77.07648 412.544c-20.39296 0-36.70016 16.31232-36.70016 36.70016L40.37632 808.09472c0 20.39296 16.31232 36.70528 36.70016 36.70528l367.00672 0c20.39808 0 36.7104-16.31232 36.7104-36.70528l0-358.85056C480.78336 424.77568 464.48128 412.544 444.0832 412.544zM945.65888 412.544l-367.0016 0c-20.39296 0-36.7104 16.31232-36.7104 36.70016L541.94688 808.09472c0 20.39296 16.31744 36.70528 36.7104 36.70528l367.0016 0c20.38784 0 36.70528-16.31232 36.70528-36.70528l0-358.85056C978.2784 424.77568 961.97632 412.544 945.65888 412.544zM444.0832-76.80512 77.07648-76.80512c-20.39296 0-36.70016 16.31744-36.70016 36.70528l0 358.85568c0 20.38784 16.31232 36.70016 36.70016 36.70016l367.00672 0c20.39808 0 36.7104-16.31232 36.7104-36.70016l0-358.85568C480.78336-64.56832 464.48128-76.80512 444.0832-76.80512zM945.65888-76.80512l-367.0016 0c-20.39296 0-36.7104 16.31744-36.7104 36.70528l0 358.85568c0 20.38784 16.31744 36.70016 36.7104 36.70016l367.0016 0c20.38784 0 36.70528-16.31232 36.70528-36.70016l0-358.85568C978.2784-64.56832 961.97632-76.80512 945.65888-76.80512z"  horiz-adv-x="1024" />

    
    <glyph glyph-name="1" unicode="&#58895;" d="M989.867 725.333c0-18.842-15.292-34.133-34.133-34.133h-546.133c-18.842 0-34.133 15.292-34.133 34.133v0c0 18.842 15.292 34.133 34.133 34.133h546.133c18.842 0 34.133-15.292 34.133-34.133v0zM170.667 861.867c-75.401 0-136.533-61.133-136.533-136.533s61.133-136.533 136.533-136.533 136.533 61.133 136.533 136.533c0 75.401-61.133 136.533-136.533 136.533zM170.667 657.067c-37.717 0-68.267 30.549-68.267 68.267s30.549 68.267 68.267 68.267 68.267-30.549 68.267-68.267c0-37.717-30.549-68.267-68.267-68.267zM170.667 520.533c-75.401 0-136.533-61.133-136.533-136.533s61.133-136.533 136.533-136.533 136.533 61.133 136.533 136.533c0 75.401-61.133 136.533-136.533 136.533zM170.667 315.733c-37.717 0-68.267 30.549-68.267 68.267s30.549 68.267 68.267 68.267 68.267-30.549 68.267-68.267c0-37.717-30.549-68.267-68.267-68.267zM170.667 179.2c-75.401 0-136.533-61.133-136.533-136.533s61.133-136.533 136.533-136.533 136.533 61.133 136.533 136.533c0 75.401-61.133 136.533-136.533 136.533zM170.667-25.6c-37.717 0-68.267 30.549-68.267 68.267s30.549 68.267 68.267 68.267 68.267-30.549 68.267-68.267c0-37.717-30.549-68.267-68.267-68.267zM989.867 384c0-18.842-15.292-34.133-34.133-34.133h-546.133c-18.842 0-34.133 15.292-34.133 34.133v0c0 18.842 15.292 34.133 34.133 34.133h546.133c18.842 0 34.133-15.292 34.133-34.133v0zM989.867 42.667c0-18.842-15.292-34.133-34.133-34.133h-546.133c-18.842 0-34.133 15.292-34.133 34.133v0c0 18.842 15.292 34.133 34.133 34.133h546.133c18.842 0 34.133-15.292 34.133-34.133v0z"  horiz-adv-x="1024" />

    
    <glyph glyph-name="buoumaotubiao01" unicode="&#58882;" d="M861.160727-85.387636 228.933818-85.387636c-12.846545 0-23.272727 10.426182-23.272727 23.272727s10.426182 23.272727 23.272727 23.272727l632.226909 0c38.493091 0 69.818182 31.325091 69.818182 69.818182l0 698.181818c0 38.493091-31.325091 69.818182-69.818182 69.818182l-698.181818 0c-38.493091 0-69.818182-31.325091-69.818182-69.818182l0-768c0-12.846545-10.426182-23.272727-23.272727-23.272727s-23.272727 10.426182-23.272727 23.272727l0 768c0 64.162909 52.200727 116.363636 116.363636 116.363636l698.181818 0c64.162909 0 116.363636-52.200727 116.363636-116.363636l0-698.181818C977.524364-33.186909 925.323636-85.387636 861.160727-85.387636zM512.069818 380.066909c-144.151273 0-261.422545 117.271273-261.422545 261.422545 0 12.846545 10.426182 23.272727 23.272727 23.272727s23.272727-10.426182 23.272727-23.272727c0-118.481455 96.395636-214.877091 214.877091-214.877091s214.877091 96.395636 214.877091 214.877091c0 12.846545 10.426182 23.272727 23.272727 23.272727s23.272727-10.426182 23.272727-23.272727C773.515636 497.338182 656.244364 380.066909 512.069818 380.066909z"  horiz-adv-x="1024" />

    
    <glyph glyph-name="wode" unicode="&#59292;" d="M671.985 314.10699999999997c72.8536 51.4637 120.434 136.326 120.434 232.305 0 156.985-127.254 284.238-284.231 284.238-156.977 0-284.229-127.254-284.229-284.238 0-99.3227 50.9582-186.732 128.145-237.552-144.191-62.8944-245.845-205.101-249.83-371.508l40.6151 0c4.28889 161.532 110.562 297.643 256.784 346.3 33.4395-13.8262 70.0833-21.4716 108.517-21.4716 41.7393 0 81.376 8.9983 117.079 25.1589 152.243-45.1326 264.121-184.163 268.524-349.986l40.6191 0C930.308 108.56200000000001 822.819 254.15599999999995 671.985 314.10699999999997ZM508.188 302.79499999999996c-134.548 0-243.626 109.074-243.626 243.618 0 134.554 109.078 243.624 243.626 243.624 134.55 0 243.63-109.069 243.63-243.624C751.817 411.867 642.738 302.79499999999996 508.188 302.79499999999996Z"  horiz-adv-x="1024" />

    
    <glyph glyph-name="fenlei3" unicode="&#58944;" d="M877.065625 661.006926 146.541407 661.006926c-15.425034 0-27.832194-12.57499-27.832194-27.833217l0-18.107248c0-15.426058 12.57499-27.833217 27.832194-27.833217l730.356387 0c15.425034 0 27.832194 12.57499 27.832194 27.833217l0 17.940442C904.897818 648.432959 892.489636 661.006926 877.065625 661.006926L877.065625 661.006926zM877.065625 420.071227 146.541407 420.071227c-15.425034 0-27.832194-12.57499-27.832194-27.833217l0-18.442909c0-15.424011 12.57499-27.83117 27.832194-27.83117l730.356387 0c15.425034 0 27.832194 12.57499 27.832194 27.83117l0 18.442909C904.897818 407.664068 892.489636 420.071227 877.065625 420.071227L877.065625 420.071227zM877.065625 179.133482 146.541407 179.133482c-15.425034 0-27.832194-12.57499-27.832194-27.833217l0-18.441886c0-15.425034 12.57499-27.833217 27.832194-27.833217l730.356387 0c15.425034 0 27.832194 12.57499 27.832194 27.833217l0 18.441886C904.897818 166.726322 892.489636 179.133482 877.065625 179.133482L877.065625 179.133482z"  horiz-adv-x="1024" />

    
    <glyph glyph-name="fenlei4" unicode="&#58936;" d="M176.967504 607.360114c-61.575404 0-111.677499 50.102095-111.677499 111.677499S115.3921 830.715111 176.967504 830.715111s111.677499-50.102095 111.677499-111.677499S238.542908 607.360114 176.967504 607.360114zM176.967504 786.043702c-36.94954 0-67.00609-30.05655-67.00609-67.00609s30.05655-67.00609 67.00609-67.00609 67.00609 30.05655 67.00609 67.00609S213.917044 786.043702 176.967504 786.043702zM400.322501 741.373317l558.38647 0 0-44.671409-558.38647 0 0 44.671409ZM176.967504 272.317385c-61.575404 0-111.677499 50.102095-111.677499 111.688755 0 61.575404 50.102095 111.677499 111.677499 111.677499s111.677499-50.102095 111.677499-111.677499C288.645003 322.41948 238.542908 272.317385 176.967504 272.317385zM176.967504 451.01223c-36.94954 0-67.00609-30.05655-67.00609-67.00609 0-36.960797 30.05655-67.017346 67.00609-67.017346s67.00609 30.05655 67.00609 67.017346C243.974617 420.954657 213.917044 451.01223 176.967504 451.01223zM400.322501 406.340821l558.38647 0 0-44.681642-558.38647 0 0 44.681642ZM176.967504-62.715111c-61.575404 0-111.677499 50.102095-111.677499 111.677499 0 61.575404 50.102095 111.677499 111.677499 111.677499s111.677499-50.102095 111.677499-111.677499C288.645003-12.613016 238.542908-62.715111 176.967504-62.715111zM176.967504 115.969501c-36.94954 0-67.00609-30.05655-67.00609-67.00609 0-36.94954 30.05655-67.00609 67.00609-67.00609s67.00609 30.05655 67.00609 67.00609C243.974617 85.911928 213.917044 115.969501 176.967504 115.969501zM400.322501 71.298092l558.38647 0 0-44.671409-558.38647 0 0 44.671409Z"  horiz-adv-x="1024" />

    
    <glyph glyph-name="fenlei5" unicode="&#59009;" d="M779.874699 820.11245 256.462651 820.11245c-82.595984 0-149.538956-66.955823-149.538956-149.538956l0-560.796787c0-82.583133 66.955823-149.538956 149.538956-149.538956l523.399197 0c82.595984 0 149.538956 66.955823 149.538956 149.538956L929.400803 670.573494C929.413655 753.169478 862.457831 820.11245 779.874699 820.11245zM740.292369 121.33012 295.967871 121.33012c-22.695582 0-41.124498 20.061044-41.124498 44.774297 0 24.713253 18.428916 44.774297 41.124498 44.774297l444.311647 0c22.695582 0 41.124498-20.061044 41.124498-44.774297C781.416867 141.391165 762.987952 121.33012 740.292369 121.33012zM740.292369 336.26988 295.967871 336.26988c-22.695582 0-41.124498 20.061044-41.124498 44.787149 0 24.713253 18.428916 44.774297 41.124498 44.774297l444.311647 0c22.695582 0 41.124498-20.061044 41.124498-44.774297C781.416867 356.330924 762.987952 336.26988 740.292369 336.26988zM740.292369 551.235341 295.967871 551.235341c-22.695582 0-41.124498 20.061044-41.124498 44.774297 0 24.713253 18.428916 44.787149 41.124498 44.787149l444.311647 0c22.695582 0 41.124498-20.061044 41.124498-44.787149C781.416867 571.296386 762.987952 551.235341 740.292369 551.235341z"  horiz-adv-x="1024" />

    
    <glyph glyph-name="icon-test" unicode="&#58915;" d="M897.886209 55.39182H394.90563c-32.05916 0-58.035788 25.995047-58.035788 58.035788v38.692231c0 32.078603 25.976628 58.035788 58.035788 58.035787h502.980579c32.061207 0 58.036811-25.957185 58.036811-58.035787v-38.692231c-0.001023-32.04074-25.975605-58.035788-58.036811-58.035788z m0 251.489778H394.90563c-32.05916 0-58.035788 25.995047-58.035788 58.036811v38.691208c0 32.05916 25.976628 58.035788 58.035788 58.035787h502.980579c32.061207 0 58.036811-25.976628 58.036811-58.035787v-38.691208c-0.001023-32.041764-25.975605-58.036811-58.036811-58.036811z m0 251.489778H394.90563c-32.05916 0-58.035788 25.995047-58.035788 58.036811v38.691208c0 32.05916 25.976628 58.035788 58.035788 58.035787h502.980579c32.061207 0 58.036811-25.976628 58.036811-58.035787v-38.691208c-0.001023-32.04074-25.975605-58.036811-58.036811-58.036811zM201.45164 55.39182h-77.381392c-32.060183 0-58.035788 25.995047-58.035787 58.035788v38.692231c0 32.078603 25.976628 58.035788 58.035787 58.035787h77.381392c32.060183 0 58.035788-25.957185 58.035788-58.035787v-38.692231c0-32.04074-25.976628-58.035788-58.035788-58.035788z m0 251.489778h-77.381392c-32.060183 0-58.035788 25.995047-58.035787 58.036811v38.691208c0 32.05916 25.976628 58.035788 58.035787 58.035787h77.381392c32.060183 0 58.035788-25.976628 58.035788-58.035787v-38.691208c0-32.041764-25.976628-58.036811-58.035788-58.036811z m0 251.489778h-77.381392c-32.060183 0-58.035788 25.995047-58.035787 58.036811v38.691208c0 32.05916 25.976628 58.035788 58.035787 58.035787h77.381392c32.060183 0 58.035788-25.976628 58.035788-58.035787v-38.691208c0-32.04074-25.976628-58.036811-58.035788-58.036811z"  horiz-adv-x="1024" />

    
    <glyph glyph-name="gouwudai1" unicode="&#58957;" d="M769.024-100.608H254.976c-56.192 0-107.776 43.392-117.312 98.752L63.488 447.616a94.976 94.976 0 0 0 20.032 77.504 94.912 94.912 0 0 0 73.024 32.896h710.912c28.8 0 55.488-12.032 73.088-32.96 17.536-20.864 24.832-49.28 19.968-77.696l-74.112-449.024c-9.664-55.616-61.12-98.944-117.376-98.944z m-612.48 589.312a25.6 25.6 0 0 1-20.096-8.192 25.792 25.792 0 0 1-4.736-21.376l74.24-449.472c3.776-21.76 26.688-41.024 49.024-41.024h514.048c22.4 0 45.248 19.328 49.152 41.28l74.112 449.024a26.432 26.432 0 0 1-4.608 21.568 25.792 25.792 0 0 1-20.096 8.256H156.544v-0.064z m145.728-207.808c-38.208 0-69.312 31.04-69.312 69.248s31.104 69.248 69.312 69.248a69.312 69.312 0 0 0 0-138.496z m0 69.248l-0.128-0.064 0.064-34.56 0.064 34.624z m417.408-69.248a69.312 69.312 0 1 0 0.064 138.56 69.312 69.312 0 0 0-0.064-138.56z m0.064 69.248h-0.128l0.064-34.624 0.064 34.624z m34.56 241.536a34.56 34.56 0 0 0-34.56 34.624c0 99.072-110.656 173.056-209.536 173.056-101.184 0-205.888-64.576-205.888-172.672a34.56 34.56 0 0 0-69.248 0c0 151.488 139.904 241.92 275.136 241.92 131.84 0 278.784-99.584 278.784-242.304a34.688 34.688 0 0 0-34.688-34.624z"  horiz-adv-x="1024" />

    
    <glyph glyph-name="amc_circle_close" unicode="&#58893;" d="M947.458 568.19c-23.806 56.24-57.881 106.742-101.276 150.104-43.395 43.362-93.936 77.409-150.222 101.197-58.29 24.634-120.191 37.125-183.936 37.125-63.791 0-125.693-12.491-183.982-37.125-56.286-23.788-106.828-57.835-150.224-101.197-43.396-43.362-77.47-93.863-101.277-150.104-24.655-58.244-37.156-120.095-37.156-183.863 0-63.741 12.501-125.592 37.156-183.836 23.807-56.241 57.881-106.743 101.277-150.105 43.396-43.361 93.938-77.408 150.224-101.196 58.29-24.635 120.191-37.126 183.982-37.126 63.746 0 125.646 12.491 183.937 37.126 56.286 23.788 106.827 57.835 150.222 101.197 43.395 43.361 77.47 93.863 101.276 150.104 24.656 58.244 37.157 120.095 37.157 183.836-0.001 63.768-12.502 125.618-37.158 183.863v0zM512.023-22.864c-224.704 0-407.516 182.664-407.516 407.192 0 224.552 182.811 407.218 407.516 407.218 224.658 0 407.468-182.665 407.468-407.218 0-224.527-182.81-407.192-407.468-407.192v0zM659.246 582.44c-0.007-0.007-0.015-0.015-0.022-0.022l-151.442-151.61-151.727 151.32c-13.138 13.103-34.414 13.090-47.519-0.004-0.008-0.008-0.016-0.017-0.023-0.023-13.12-13.135-13.099-34.411 0.045-47.521l151.729-151.321-151.44-151.606c-13.12-13.135-13.099-34.411 0.063-47.538 13.138-13.103 34.412-13.090 47.534 0.023 0.007 0.006 0.016 0.016 0.023 0.022l151.44 151.607 151.727-151.319c13.138-13.104 34.413-13.091 47.535 0.021 0.009 0.008 0.017 0.016 0.023 0.023 13.104 13.116 13.082 34.393-0.062 47.503l-151.728 151.321 151.442 151.606c13.119 13.135 13.101 34.411-0.045 47.522-13.155 13.12-34.43 13.108-47.553-0.005v0z"  horiz-adv-x="1024" />

    
    <glyph glyph-name="jiantou0101" unicode="&#58885;" d="M762.197 496.299l-267.491-267.378-267.378 267.378Z"  horiz-adv-x="1024" />

    
    <glyph glyph-name="control-arr-copy-copy" unicode="&#58958;" d="M490.762 518.41l276.596-306.825h-510.715l234.119 306.825zM490.762 518.41z"  horiz-adv-x="1024" />

    
    <glyph glyph-name="jiage-copy" unicode="&#58964;" d="M795.433 767.595h-106.347l-119.573-220.323c-31.888-59.709-51.393-99.396-58.515-119.067h-2.035c-21.037 47.83-80.396 160.956-178.091 339.389h-112.451l209.129-359.233h-171.475v-79.376h200.987v-109.399h-200.987v-80.395h200.987v-159.264h99.728v159.264h193.863v80.395h-193.862v109.399h193.863v79.376h-166.385l211.164 359.233z"  horiz-adv-x="1024" />

    
    <glyph glyph-name="xing" unicode="&#59065;" d="M566.784 821.248l95.232-201.216c8.704-18.944 26.112-31.744 46.08-34.816l212.48-32.256c50.176-7.68 70.144-72.192 33.792-109.056l-153.6-157.184c-14.336-14.848-20.992-35.84-17.408-56.832l36.352-221.184c8.704-52.224-44.032-92.16-89.088-67.584L540.16 46.08c-17.92 9.728-38.912 9.728-56.832 0l-189.952-104.448c-45.056-24.576-97.28 15.36-89.088 67.584L240.64 230.4c3.584 20.992-3.072 41.984-17.408 56.832L69.12 443.392c-36.352 36.864-16.384 101.376 33.792 109.056l212.48 32.256c19.968 3.072 37.376 15.872 46.08 34.816l95.232 201.216c22.528 48.128 87.552 48.128 110.08 0.512z"  horiz-adv-x="1024" />

    
    <glyph glyph-name="fenlei6" unicode="&#59201;" d="M713.701838 404.37505H531.927865V586.150046c0 100.392478 81.382519 181.774997 181.774996 181.774997 100.390431 0 181.774997-81.382519 181.774997-181.774997-0.001023-100.390431-81.385589-181.774997-181.77602-181.774996z m0 282.760992c-55.772234 0-100.985995-45.213761-100.985995-100.985996v-100.985995h100.985995c55.772234 0 100.985995 45.213761 100.985996 100.985995s-45.212738 100.985995-100.985996 100.985996zM309.757856 0.431068c-100.392478 0-181.774997 81.382519-181.774996 181.774996s81.382519 181.774997 181.774996 181.774997h181.774997v-181.774997c0-100.392478-81.382519-181.774997-181.774997-181.774996zM127.98286 586.150046c0 100.392478 81.382519 181.774997 181.774996 181.774997s181.774997-81.382519 181.774997-181.774997v-181.774996H309.757856c-100.392478 0-181.774997 81.384565-181.774996 181.774996z m767.493975-403.943982c0-100.392478-81.384565-181.774997-181.774997-181.774996-100.392478 0-181.774997 81.382519-181.774996 181.774996V363.981061h181.774996c100.390431 0 181.774997-81.382519 181.774997-181.774997z"  horiz-adv-x="1024" />

    
    <glyph glyph-name="wode1" unicode="&#58887;" d="M625.302 333.382c95.411 44.138 161.804 139.986 161.804 251.127 0 152.924-125.324 277.353-279.382 277.353-153.971 0-279.36-124.429-279.36-277.309 0-111.186 66.414-207.033 161.804-251.171-181.898-52.822-316.626-224.378-322.102-429.382h879.382c-5.498 205.004-140.204 376.56-322.146 429.382z"  horiz-adv-x="1024" />

    
    <glyph glyph-name="202-copy" unicode="&#58892;" d="M344.377 32.721c-7.953-0.001-15.9 3.071-21.911 9.195-11.876 12.1-11.695 31.536 0.405 43.413l309.436 303.706-312.709 312.71c-11.989 11.988-11.989 31.426 0 43.415 11.988 11.989 31.427 11.989 43.415 0l334.621-334.621c5.793-5.792 9.030-13.66 8.992-21.852-0.039-8.192-3.348-16.028-9.195-21.767l-331.551-325.41c-5.975-5.865-13.742-8.789-21.502-8.789z"  horiz-adv-x="1024" />

    
    <glyph glyph-name="fenlei7" unicode="&#58937;" d="M87.389 864c-29 0-52.509-23.509-52.509-52.509s23.509-52.509 52.509-52.509c29 0 52.509 23.509 52.509 52.509 0 29-23.509 52.509-52.509 52.509zM283.566 777.428h669.442c0.002 0 0.004 0 0.006 0 19.89 0 36.015 16.124 36.015 36.015 0 19.89-16.124 36.015-36.015 36.015-0.002 0-0.004 0-0.007 0h-669.442c-19.888-0.004-36.008-16.126-36.008-36.015 0-19.888 16.121-36.011 36.008-36.015zM87.389 452.321c-29 0-52.509-23.509-52.509-52.509s23.509-52.509 52.509-52.509c29 0 52.509 23.509 52.509 52.509 0 29-23.509 52.509-52.509 52.509 0 0 0 0 0 0zM953.008 436.51h-669.442c-19.888-0.004-36.008-16.126-36.008-36.015 0-19.888 16.121-36.011 36.008-36.015h669.442c19.888 0.004 36.008 16.126 36.008 36.015 0 19.888-16.121 36.011-36.008 36.015zM87.389 9.020c-29 0-52.509-23.509-52.509-52.509s23.509-52.509 52.509-52.509c29 0 52.509 23.509 52.509 52.509 0 29-23.509 52.509-52.509 52.509 0 0 0 0 0 0zM953.008-9.817h-669.442c-19.89 0-36.015-16.124-36.015-36.015 0-19.89 16.124-36.015 36.015-36.015h669.442c19.89 0 36.015 16.124 36.015 36.015 0 19.89-16.124 36.015-36.015 36.015z"  horiz-adv-x="1266" />

    
    <glyph glyph-name="fenlei21" unicode="&#58888;" d="M241.344 896c66.667 0 126.997-26.965 170.645-70.549l1.472-1.6c42.768-43.317 69.184-102.868 69.184-168.588 0-0.063-0-0.127-0-0.19l0-214.369c0-14.677-11.883-26.539-26.581-26.539h-214.72c-0.1-0-0.218-0-0.336-0-66.471 0-126.644 26.963-170.179 70.547l-0.066 0.066-0.064-0.064c-43.66 43.463-70.678 103.611-70.678 170.070 0 0.105 0 0.209 0 0.314-0 66.458 27.008 126.768 70.677 170.352 43.586 43.589 103.802 70.55 170.314 70.55 0.116 0 0.233-0 0.349-0zM411.84-54.592c-43.538-43.587-103.711-70.55-170.182-70.55-0.118 0-0.236 0-0.354 0-0.065-0-0.164-0-0.263-0-65.742 0-125.329 26.351-168.776 69.068-0.521 0.458-1.012 0.97-1.588 1.46-43.659 43.453-70.678 103.593-70.678 170.044 0 0.107 0 0.213 0 0.32-0 0.060-0 0.151-0 0.242 0 66.464 27.017 126.619 70.669 170.079 43.591 43.61 103.809 70.579 170.327 70.579 0.115 0 0.23-0 0.345-0l214.723 0c14.677 0 26.581-11.947 26.581-26.539v-214.379c0-66.475-27.008-126.656-70.677-170.219l-0.128-0.107zM953.259 286.293c43.587-43.531 70.55-103.699 70.55-170.164 0-0.117-0-0.233-0-0.35 0-65.817-26.368-125.486-69.035-169.027-0.491-0.533-1.003-1.045-1.493-1.621-43.453-43.659-103.593-70.678-170.044-70.678-0.107 0-0.213 0-0.32 0-0.060-0-0.151-0-0.242-0-66.464 0-126.619 27.017-170.079 70.669-43.611 43.604-70.579 103.833-70.579 170.362 0 0.11 0 0.22 0 0.331l-0 214.724c0 14.677 11.947 26.539 26.539 26.539h214.379c66.475 0 126.656-27.008 170.219-70.677l0.107-0.107zM610.901 825.45c43.596 43.589 103.82 70.55 170.341 70.55 0.107 0 0.214-0 0.321-0 66.65 0 126.981-26.965 170.65-70.549l-0.085-0.064 0.085-0.064c43.659-43.437 70.677-103.563 70.677-169.999 0-0.077-0-0.154-0-0.232 0-0.053 0-0.13 0-0.208 0-66.436-27.019-126.562-70.667-169.989l-0.181-0.159c-43.538-43.587-103.711-70.55-170.182-70.55-0.111 0-0.221 0-0.332 0l-214.724-0c-0-0-0-0-0-0-14.665 0-26.557 11.877-26.581 26.536l-0 214.36c-0 0.065-0 0.141-0 0.218 0 66.484 27.016 126.658 70.67 170.142z"  horiz-adv-x="1024" />

    
    <glyph glyph-name="gouwu" unicode="&#58883;" d="M1004.01 745.548c-2.2113 46.4374-42.0147 81.8182-88.4523 81.8182H294.187C247.75 827.366 207.946 791.986 205.735 745.548L163.721 26.875c-2.2113-22.113 6.63391-44.226 22.113-59.7052 15.4792-15.4792 35.3808-24.3244 59.7052-24.3244H968.636c22.113 0 44.226 8.84523 59.7052 24.3244 15.4792 15.4792 22.113 37.5922 22.113 59.7052L1004.01 745.548Zm-6.63391-749.632c-6.63391-6.63391-17.6904-11.0566-28.7469-11.0566H245.538c-11.0566 0-19.9017 4.4226-28.7469 11.0566-6.63391 6.63391-11.0566 17.6904-11.0566 28.7469L247.75 743.336c2.2113 22.113 22.113 42.0147 46.4374 42.0147h621.376c24.3244 0 44.226-17.6904 46.4374-42.0147l44.226-718.672c2.2113-11.0566-2.2113-22.113-8.84523-28.7469ZM782.884 696.899c-11.0566 0-22.113-8.84523-22.113-22.113 0-86.2407-68.5504-154.792-154.792-154.792s-154.792 68.5504-154.792 154.792c0 11.0566-8.84523 22.113-22.113 22.113-11.0566 0-22.113-8.84523-22.113-22.113 0-108.354 88.4523-196.806 196.806-196.806s196.806 88.4523 196.806 196.806c2.2113 13.2678-6.63391 22.113-17.6904 22.113Z"  horiz-adv-x="1237" />

    
    <glyph glyph-name="gouwuche" unicode="&#58881;" d="M1010.428 598.955L896.121 277.664c-15.939-44.692-58.502-74.748-106.02-74.748H343.826c-53.548 0-99.946 38.131-110.347 90.631L157.837 676.2l-25.025 114.77H49.017c-13.343 0-24.131 10.749-24.131 24.046 0 13.346 10.793 24.086 24.131 24.086h103.209c0.753 0 1.401-0.382 2.116-0.431 1.697-0.156 3.279-0.461 4.886-0.97 1.45-0.461 2.769-0.938 4.076-1.662 1.41-0.721 2.596-1.566 3.833-2.544 1.245-0.979 2.3-1.958 3.318-3.148a24.037 24.037 0 0 0 2.45-3.7c0.807-1.431 1.497-2.886 1.999-4.452 0.215-0.723 0.732-1.285 0.898-2.041L200.823 705.3h734.432c25.87 0 50.223-12.58 65.121-33.699 14.983-21.119 18.669-48.274 10.043-72.673l0.011 0.022m-49.422 44.875c-5.959 8.46-15.338 13.345-25.733 13.345H210.747l70.025-354.286c5.946-30.001 32.471-51.763 63.059-51.763H790.11c27.155 0 51.504 17.181 60.606 42.703l114.301 321.291c3.45 9.764 2.042 20.228-4.001 28.718l-0.007-0.006M326.314 150.672c53.629 0 97.226-43.533 97.226-97.074 0-53.549-43.607-97.11-97.226-97.11-53.587 0-97.179 43.57-97.179 97.11 0.001 53.531 43.588 97.074 97.179 97.074m0-146.034c27.019 0 48.994 21.958 48.994 48.943 0 26.964-21.978 48.893-48.994 48.893-26.989 0-48.943-21.931-48.943-48.893 0-27.003 21.964-48.943 48.943-48.943m429.58 146.034c53.601 0 97.187-43.533 97.187-97.074 0-53.549-43.581-97.11-97.187-97.11-53.571 0-97.158 43.57-97.158 97.11 0 53.531 43.598 97.074 97.158 97.074m0-146.034c27.024 0 48.999 21.958 48.999 48.943 0 26.964-21.985 48.893-48.999 48.893-27.019 0-48.974-21.931-48.974-48.893-0.004-27.003 21.948-48.943 48.974-48.943m0 0z"  horiz-adv-x="1024" />

    
    <glyph glyph-name="search" unicode="&#58880;" d="M34.133 693.227h281.067v-56.213h-281.067v56.213zM34.133 384h281.067v-56.213h-281.067zM927.853 153.325l-196.781 196.782 39.748 39.748 196.781-196.781zM34.133 46.719h955.733v-56.213h-955.733zM624.428 327.787c108.693 0 196.8 88.108 196.8 196.8s-88.108 196.8-196.8 196.8-196.8-88.106-196.8-196.8 88.108-196.8 196.8-196.8zM624.428 271.572c-139.734 0-253.013 113.281-253.013 253.013s113.281 253.013 253.013 253.013 253.013-113.281 253.013-253.013-113.279-253.013-253.013-253.013z"  horiz-adv-x="1024" />

    
    <glyph glyph-name="shouye" unicode="&#59044;" d="M418.855806 857.870184L12.676281 451.287028s-14.379376-13.193708-6.508559-34.35914c0 0 4.33904-16.548896 31.533719-16.548896h114.707055v-420.306631s-0.782036-98.940196 105.24694-107.99668h88.698044s73.309589-2.371336 73.30959 92.229821v191.952053s-0.403632 14.581192 14.202786 14.581191h157.264963s13.395524-0.403632 13.395524-14.984823v-196.291093s-2.74974-78.430665 67.810108-87.512376h97.350897s100.9079 0 102.875604 115.110687l0.403632 413.217851h118.541555s24.924251 0 27.699219 20.383396c0 0 5.121076 20.887935-9.460116 31.93735L594.662595 866.270767S558.789837 899.26765 505.460012 895.710647c-51.412575-3.405642-86.604205-37.840463-86.604206-37.840463z"  horiz-adv-x="1024" />

    
    <glyph glyph-name="xiaoxi-copy-copy-copy-copy" unicode="&#58889;" d="M637.8000000000001 480h-256c-17.6 0-32 14.399999999999999-32 32s14.399999999999999 32 32 32h256c17.7 0 32-14.399999999999999 32-32s-14.399999999999999-32-32-32zM577 352H381.7c-17.6 0-32 14.3-32 32s14.399999999999999 32 32 32H577c17.7 0 32-14.3 32-32s-14.3-32-32-32z m-57.49999999999999-287.6C479.6 7.899999999999864 368.4-44.999999999999886 331.9-61.200000000000045c-4.2-1.7999999999999998-8.599999999999998-2.8-13-2.8-8.1 0-16.2 3.1-22.3 9-9.4 9.1-12.3 23-7.4 35.099999999999994 15.800000000000002 39 29.8 81.6 33.1 99.8-2.7 4.7-4.299999999999999 10.1-4.299999999999999 15.9 0 17.7 14.399999999999999 32 32 32 12 0 23.2-6 30-15.9 5.6-8.3 14-20.7-3.5-79 47.8 27.2 88 56.4 94.1 73.8 5.3 15 20.7 22.9 35.8 20.2 1.8999999999999997 0.4 3.5999999999999996 1.1 5.6 1.1 211.8 0 384 143.6 384 320 0 176.5-172.2 320-384 320S128 624.5 128 448c0-94.9 52.8-185.2 144.9-247.7 14.6-9.9 18.4-29.900000000000002 8.5-44.5s-29.900000000000002-18.5-44.5-8.5C127 222 64 331.5 64 448 64 659.8 264.9 832 512 832c246.99999999999997 0 448-172.2 448-384 0-209.5-196.89999999999998-380.1-440.5-383.6z"  horiz-adv-x="1024" />

    
    <glyph glyph-name="fenlei8" unicode="&#59193;" d="M85.4 726.1z m-85.4 0c0-47.5 38.2-85.9 85.4-85.9s85.4 38.4 85.4 85.9S132.6 812 85.4 812 0 773.6 0 726.1M936.8 640.3H342.3c-46.9 0-85.4 38.6-85.4 85.9 0 47.3 38.5 85.9 85.4 85.9h594.5c47 0 85.4-38.7 85.4-85.9 0.2-47.4-38.4-85.9-85.4-85.9zM85.6 384.2z m-85.6 0c0-47.5 38.2-85.9 85.4-85.9s85.4 38.4 85.4 85.9-38.2 85.9-85.4 85.9c-47 0-85.4-38.4-85.4-85.9M938.8 298.20000000000005H344.3c-47 0-85.4 38.7-85.4 85.9 0 47.3 38.4 86 85.4 86h594.5c47 0 85.4-38.7 85.4-85.9 0-47.3-38.5-86-85.4-86zM85.6 42.10000000000002z m-85.6 0c0-47.5 38.2-85.9 85.4-85.9s85.4 38.4 85.4 85.9c0 47.5-38.2 85.9-85.4 85.9-47 0.1-85.4-38.5-85.4-85.9M938.8-43.799999999999955H344.3c-47 0-85.4 38.7-85.4 85.9 0 47.3 38.5 85.9 85.4 85.9h594.5c47 0 85.4-38.7 85.4-85.9 0-47.1-38.5-85.9-85.4-85.9z"  horiz-adv-x="1024" />

    
    <glyph glyph-name="gouwudai" unicode="&#59980;" d="M832 768H192c-35.2 0-64-28.8-64-64v-640c0-35.2 28.8-64 64-64h640c35.2 0 64 28.8 64 64V704c0 35.2-28.8 64-64 64z m-128-288c0-105.6-86.4-192-192-192s-192 86.4-192 192v64c0 19.2 12.8 32 32 32s32-12.8 32-32v-64c0-70.4 57.6-128 128-128s128 57.6 128 128v64c0 19.2 12.8 32 32 32s32-12.8 32-32v-64z"  horiz-adv-x="1024" />

    
    <glyph glyph-name="xing1" unicode="&#58890;" d="M1022.045 502.912a47.616 47.616 0 0 1-38.656 32.512l-295.872 43.072L555.101 846.592a47.744 47.744 0 0 1-85.504 0L337.245 578.496l-296-43.072a47.616 47.616 0 0 1-38.592-32.512 48.128 48.128 0 0 1 12.032-48.96l214.272-208.704-50.368-294.656a47.68 47.68 0 0 1 69.248-50.304l264.704 139.2 264.704-139.2a47.936 47.936 0 0 1 69.312 50.304l-50.496 294.656 214.272 208.704a48.384 48.384 0 0 1 11.712 48.96z"  horiz-adv-x="1024" />

    
    <glyph glyph-name="fenlei9" unicode="&#58942;" d="M241.689441-121.639752c-63.602484 0-127.204969 25.440994-171.726708 69.962733-44.521739 44.521739-69.962733 101.763975-69.962733 171.726708 0 63.602484 25.440994 127.204969 69.962733 171.726709 44.521739 44.521739 101.763975 69.962733 171.726708 69.962732h216.248447c12.720497 0 25.440994-12.720497 25.440994-25.440993v-216.248448c0-63.602484-25.440994-127.204969-69.962733-165.366459-44.521739-50.881988-108.124224-76.322981-171.726708-76.322982z m133.565217 108.124224c31.801242 31.801242 50.881988 82.68323 50.881988 133.565217V304.496894H241.689441c-50.881988 0-95.403727-19.080745-133.565217-57.242236-31.801242-31.801242-57.242236-82.68323-57.242236-133.565217s19.080745-95.403727 57.242236-133.565217c31.801242-31.801242 82.68323-57.242236 133.565217-57.242236 50.881988 6.360248 95.403727 31.801242 133.565217 63.602484z m400.695653 483.378882c50.881988 0 95.403727 19.080745 133.565217 57.242236 31.801242 31.801242 50.881988 82.68323 50.881988 133.565217s-19.080745 95.403727-57.242236 133.565218c-31.801242 31.801242-82.68323 57.242236-133.565218 57.242236s-95.403727-19.080745-133.565217-57.242236c-25.440994-44.521739-44.521739-89.043478-44.521739-139.925466v-216.248447c0-12.720497-12.720497-25.440994-25.440994-25.440994s-25.440994 12.720497-25.440994 25.440994V654.310559c0 63.602484 25.440994 127.204969 69.962733 171.726708 38.161491 38.161491 101.763975 69.962733 165.36646 69.962733s127.204969-25.440994 171.726708-69.962733c44.521739-44.521739 69.962733-108.124224 69.962733-171.726708 0-63.602484-25.440994-127.204969-69.962733-165.36646-44.521739-44.521739-101.763975-69.962733-171.726708-69.962733h-69.962733c-12.720497 0-25.440994 12.720497-25.440994 25.440994s12.720497 25.440994 25.440994 25.440994h69.962733zM241.689441 838.757764c-50.881988 0-101.763975-19.080745-133.565217-50.881988-31.801242-38.161491-57.242236-82.68323-57.242236-133.565217s19.080745-95.403727 57.242236-133.565217c31.801242-31.801242 82.68323-50.881988 133.565217-50.881988h184.447205V654.310559c0 50.881988-19.080745 95.403727-57.242236 133.565217-31.801242 31.801242-76.322981 50.881988-127.204969 50.881988z m165.36646-12.720497c44.521739-44.521739 69.962733-101.763975 69.962733-171.726708v-216.248447c0-12.720497-12.720497-25.440994-25.440994-25.440994H241.689441c-63.602484 0-127.204969 25.440994-171.726708 69.962733C25.440994 527.10559 0 590.708075 0 654.310559c0 63.602484 25.440994 127.204969 69.962733 171.726708C114.484472 870.559006 171.726708 896 241.689441 896c63.602484 0 127.204969-31.801242 165.36646-69.962733z m368.89441-896.795031c50.881988 0 95.403727 19.080745 133.565217 57.242236 31.801242 31.801242 57.242236 82.68323 57.242236 133.565217s-19.080745 95.403727-57.242236 133.565218c-31.801242 31.801242-82.68323 57.242236-133.565217 57.242236H591.503106v-184.447205c0-50.881988 19.080745-95.403727 57.242236-133.565218 31.801242-38.161491 76.322981-63.602484 127.204969-63.602484z m-171.726709 19.080745c-44.521739 44.521739-69.962733 101.763975-69.962732 171.726708V329.937888c0 12.720497 12.720497 25.440994 25.440993 25.440994h216.248448c63.602484 0 127.204969-25.440994 171.726708-69.962733 44.521739-44.521739 69.962733-101.763975 69.962733-171.726708s-25.440994-127.204969-69.962733-171.726708c-44.521739-44.521739-101.763975-69.962733-171.726708-69.962733-63.602484 6.360248-127.204969 31.801242-171.726709 76.322981z m0 0"  horiz-adv-x="1024" />

    


  </font>
</defs>
</svg>
